<?xml version="1.0" encoding="UTF-8" standalone="no"?>
<!DOCTYPE svg PUBLIC "-//W3C//DTD SVG 1.1//EN" "http://www.w3.org/Graphics/SVG/1.1/DTD/svg11.dtd">
<svg xmlns="http://www.w3.org/2000/svg" version="1.1" viewBox="0.00 0.00 239.00 239.00">
<g stroke-width="2.00" fill="none" stroke-linecap="butt">
<path stroke="#b39f9c" vector-effect="non-scaling-stroke" d="
  M 86.50 120.68
  Q 87.38 128.56 89.52 136.25
  Q 92.39 146.53 100.21 159.27
  C 101.94 162.10 102.99 162.70 106.18 163.07
  Q 115.18 164.12 118.47 164.10
  C 150.14 163.89 162.89 144.35 175.20 118.23
  A 1.66 1.66 0.0 0 0 175.00 116.49
  Q 160.49 98.30 149.91 77.56
  A 1.67 1.65 0.8 0 0 149.19 76.83
  C 148.13 76.25 147.27 75.81 146.06 75.60
  Q 126.03 72.12 107.40 63.72
  A 2.19 2.18 -62.0 0 0 104.64 64.57
  Q 100.67 71.08 96.73 77.95
  Q 89.02 91.37 86.75 106.59
  C 86.35 109.30 86.40 112.14 86.29 114.89
  Q 86.18 117.79 86.50 120.68"
/>
<path stroke="#b39f9c" vector-effect="non-scaling-stroke" d="
  M 156.22 124.63
  C 164.97 123.05 159.93 111.20 155.00 111.99
  Q 139.27 114.52 123.48 116.60
  Q 122.34 116.76 121.11 116.77
  A 1.15 1.14 71.3 0 1 120.17 116.30
  C 116.79 111.65 117.59 103.64 113.96 99.78
  C 111.15 96.80 104.69 97.80 103.49 101.83
  Q 103.00 103.48 103.83 107.10
  Q 106.26 117.69 108.93 128.22
  Q 110.01 132.47 114.44 131.76
  Q 135.38 128.40 156.22 124.63"
/>
</g>
<path fill="#a77f78" d="
  M 152.15 63.99
  C 153.74 64.29 155.73 65.52 156.47 66.98
  Q 169.84 93.21 187.10 114.65
  C 188.53 116.43 188.95 117.47 187.95 119.73
  Q 179.35 139.19 169.46 152.94
  C 154.18 174.20 124.86 182.48 99.72 178.47
  C 96.25 177.91 92.10 177.75 90.01 174.76
  C 71.32 147.86 64.40 109.60 79.01 79.01
  Q 85.18 66.10 93.92 52.70
  C 95.50 50.27 96.42 48.34 99.43 47.62
  A 2.89 2.87 -38.9 0 1 101.28 47.81
  Q 125.59 59.07 152.15 63.99
  Z
  M 86.50 120.68
  Q 87.38 128.56 89.52 136.25
  Q 92.39 146.53 100.21 159.27
  C 101.94 162.10 102.99 162.70 106.18 163.07
  Q 115.18 164.12 118.47 164.10
  C 150.14 163.89 162.89 144.35 175.20 118.23
  A 1.66 1.66 0.0 0 0 175.00 116.49
  Q 160.49 98.30 149.91 77.56
  A 1.67 1.65 0.8 0 0 149.19 76.83
  C 148.13 76.25 147.27 75.81 146.06 75.60
  Q 126.03 72.12 107.40 63.72
  A 2.19 2.18 -62.0 0 0 104.64 64.57
  Q 100.67 71.08 96.73 77.95
  Q 89.02 91.37 86.75 106.59
  C 86.35 109.30 86.40 112.14 86.29 114.89
  Q 86.18 117.79 86.50 120.68
  Z"
/>
<path fill="#bfbfbf" d="
  M 86.50 120.68
  Q 86.18 117.79 86.29 114.89
  C 86.40 112.14 86.35 109.30 86.75 106.59
  Q 89.02 91.37 96.73 77.95
  Q 100.67 71.08 104.64 64.57
  A 2.19 2.18 -62.0 0 1 107.40 63.72
  Q 126.03 72.12 146.06 75.60
  C 147.27 75.81 148.13 76.25 149.19 76.83
  A 1.67 1.65 0.8 0 1 149.91 77.56
  Q 160.49 98.30 175.00 116.49
  A 1.66 1.66 0.0 0 1 175.20 118.23
  C 162.89 144.35 150.14 163.89 118.47 164.10
  Q 115.18 164.12 106.18 163.07
  C 102.99 162.70 101.94 162.10 100.21 159.27
  Q 92.39 146.53 89.52 136.25
  Q 87.38 128.56 86.50 120.68
  Z
  M 156.22 124.63
  C 164.97 123.05 159.93 111.20 155.00 111.99
  Q 139.27 114.52 123.48 116.60
  Q 122.34 116.76 121.11 116.77
  A 1.15 1.14 71.3 0 1 120.17 116.30
  C 116.79 111.65 117.59 103.64 113.96 99.78
  C 111.15 96.80 104.69 97.80 103.49 101.83
  Q 103.00 103.48 103.83 107.10
  Q 106.26 117.69 108.93 128.22
  Q 110.01 132.47 114.44 131.76
  Q 135.38 128.40 156.22 124.63
  Z"
/>
<path fill="#a77f78" d="
  M 155.00 111.99
  C 159.93 111.20 164.97 123.05 156.22 124.63
  Q 135.38 128.40 114.44 131.76
  Q 110.01 132.47 108.93 128.22
  Q 106.26 117.69 103.83 107.10
  Q 103.00 103.48 103.49 101.83
  C 104.69 97.80 111.15 96.80 113.96 99.78
  C 117.59 103.64 116.79 111.65 120.17 116.30
  A 1.15 1.14 71.3 0 0 121.11 116.77
  Q 122.34 116.76 123.48 116.60
  Q 139.27 114.52 155.00 111.99
  Z"
/>
</svg>
